<svg xmlns="http://www.w3.org/2000/svg" viewBox="0 0 24 24"><path d="M15.238,3.989L4.208,14.998c-0.302,0.302-0.503,0.689-0.576,1.11l-0.615,3.567	c-0.133,0.772,0.538,1.442,1.31,1.308l3.525-0.613c0.418-0.073,0.804-0.273,1.104-0.573L20.011,8.761L15.238,3.989z" opacity=".35"></path><path d="M13.077,6.146l-8.869,8.852c-0.302,0.302-0.503,0.689-0.576,1.11l-0.24,1.388l3.108,3.108l1.351-0.235	c0.418-0.073,0.804-0.273,1.104-0.573l8.894-8.878L13.077,6.146z"></path><path d="M19.832,8.94l0.179-0.179c1.318-1.318,1.318-3.455,0-4.773c-1.318-1.318-3.455-1.318-4.773,0l-0.179,0.179L19.832,8.94z"></path></svg>
