<svg xmlns="http://www.w3.org/2000/svg" viewBox="0 0 48 48"><linearGradient id="yQ9aSYczHsIsBLVexJfkNa" x1="12.684" x2="21.648" y1="-3.023" y2="47.817" gradientUnits="userSpaceOnUse"><stop offset="0" stop-color="#f9f9f9"></stop><stop offset=".966" stop-color="#c4c9cd"></stop><stop offset="1" stop-color="#c2c8cc"></stop></linearGradient><path fill="url(#yQ9aSYczHsIsBLVexJfkNa)" d="M18.989,14.989L4.581,29.399c-0.774,0.773-0.774,2.029,0,2.804l11.151,11.22 c0.771,0.776,2.026,0.779,2.801,0.007L33.01,29.01L18.989,14.989z"></path><linearGradient id="yQ9aSYczHsIsBLVexJfkNb" x1="28.511" x2="40.256" y1=".755" y2="67.365" gradientUnits="userSpaceOnUse"><stop offset="0" stop-color="#889097"></stop><stop offset=".679" stop-color="#5f6b74"></stop><stop offset="1" stop-color="#4c5963"></stop></linearGradient><path fill="url(#yQ9aSYczHsIsBLVexJfkNb)" d="M31.51,30.51l12.909-12.908c0.774-0.774,0.774-2.03,0-2.805L33.203,3.581 c-0.774-0.774-2.03-0.774-2.805,0L17.489,16.489L31.51,30.51z"></path><linearGradient id="yQ9aSYczHsIsBLVexJfkNc" x1="32.288" x2="41.311" y1="-10.821" y2="40.352" gradientUnits="userSpaceOnUse"><stop offset="0" stop-color="#889097"></stop><stop offset="1" stop-color="#4c5963"></stop></linearGradient><path fill="url(#yQ9aSYczHsIsBLVexJfkNc)" d="M41.403,20.618l3.016-3.016c0.774-0.774,0.774-2.03,0-2.805L33.203,3.581 c-0.774-0.774-2.03-0.774-2.805,0l-3.017,3.016L41.403,20.618z"></path></svg>
